<svg width="84" height="36" viewBox="0 0 84 36" fill="none" xmlns="http://www.w3.org/2000/svg">
<g clip-path="url(#clip0_280_1897)">
<path d="M0 18.3645C0 15.7854 0.455391 13.4494 1.36617 11.3541C2.27696 9.26109 3.52053 7.47017 5.09907 5.98358C6.67761 4.49699 8.5364 3.35195 10.6754 2.54625C12.8145 1.74275 15.098 1.3399 17.526 1.3399C19.954 1.3399 22.3667 1.74275 24.5824 2.54625C26.798 3.34976 28.6481 4.43569 30.1368 5.80186L23.4899 13.8128C22.8834 13.0246 22.1237 12.4247 21.2129 12.0153C20.3021 11.6059 19.2863 11.4001 18.1631 11.4001C17.2523 11.4001 16.4028 11.5599 15.6147 11.8774C14.8243 12.197 14.1346 12.659 13.5435 13.2655C12.9524 13.8719 12.4882 14.6076 12.1554 15.4724C11.8205 16.3372 11.6541 17.3005 11.6541 18.3623C11.6541 19.4242 11.8292 20.3722 12.1773 21.2085C12.5255 22.0427 12.9962 22.7652 13.5895 23.3716C14.1806 23.9781 14.8703 24.4423 15.6606 24.7597C16.4488 25.0794 17.283 25.237 18.1653 25.237C19.4089 25.237 20.4795 24.9787 21.3749 24.462C22.2704 23.9453 22.9754 23.3388 23.4921 22.6404L30.139 30.6076C28.6831 32.0635 26.8922 33.2261 24.7685 34.0909C22.6448 34.9557 20.2321 35.3892 17.5304 35.3892C15.1024 35.3892 12.8188 34.9797 10.6798 34.1609C8.54078 33.3421 6.68199 32.1817 5.10345 30.6776C3.5249 29.1757 2.28134 27.3848 1.37055 25.3071C0.45977 23.2293 0.00437876 20.9152 0.00437876 18.3645H0Z" fill="white"/>
<path d="M52.8057 22.2332H43.9737V34.4784H33.1406V2.25069H43.9299V13.1757H52.7619V2.25069H63.6409V34.4806H52.8078V22.2354L52.8057 22.2332Z" fill="white"/>
<path d="M80.7884 9.47345C81.2657 9.63328 81.7036 9.8544 82.102 10.1368C82.5005 10.4193 82.8398 10.7477 83.1245 11.1199C83.4069 11.4921 83.6236 11.8949 83.7747 12.3284C83.9258 12.7619 84.0002 13.1998 84.0002 13.642C84.0002 14.7389 83.7703 15.6803 83.3106 16.4685C82.8508 17.2567 82.2487 17.9026 81.5065 18.4061C80.7643 18.9097 79.9236 19.2775 78.9843 19.5074C78.0473 19.7373 77.0993 19.8533 76.1447 19.8533C75.1901 19.8533 74.2465 19.7417 73.3182 19.5205C72.3899 19.2994 71.5404 18.9491 70.7698 18.4718C69.9991 17.9945 69.327 17.3924 68.7534 16.6678C68.1776 15.9431 67.766 15.0761 67.5186 14.0668L73.4102 12.6875C73.5175 13.1472 73.778 13.572 74.194 13.9617C74.61 14.3514 75.1442 14.5463 75.7988 14.5463C75.9761 14.5463 76.1622 14.5244 76.3571 14.4806C76.5519 14.4368 76.7293 14.3667 76.8869 14.2682C77.0467 14.1719 77.1781 14.0427 77.2854 13.8829C77.3927 13.723 77.4452 13.5194 77.4452 13.272C77.4452 12.7072 77.1978 12.335 76.703 12.1576C76.2082 11.9803 75.5448 11.8927 74.7129 11.8927H72.9088V7.54023H74.9252C75.5974 7.54023 76.136 7.44827 76.5432 7.26218C76.9504 7.07608 77.154 6.71921 77.154 6.18719C77.154 5.77997 76.9942 5.49754 76.6767 5.33771C76.3571 5.17789 76.0221 5.09907 75.6674 5.09907C75.2252 5.09907 74.8179 5.237 74.4458 5.51067C74.0736 5.78435 73.8437 6.18719 73.7561 6.71921L67.8907 5.47126C68.2082 4.44444 68.6614 3.58183 69.2438 2.88342C69.8283 2.185 70.4961 1.62233 71.2471 1.19759C71.998 0.772852 72.8037 0.468528 73.662 0.282431C74.5202 0.0963333 75.3653 0.00437927 76.1973 0.00437927C77.0292 0.00437927 77.8875 0.10728 78.772 0.308703C79.6565 0.512316 80.4622 0.838533 81.1869 1.28955C81.9115 1.74056 82.5049 2.31637 82.9646 3.01478C83.4244 3.71319 83.6543 4.55829 83.6543 5.55008C83.6543 6.61193 83.3762 7.45703 82.8179 8.08539C82.2597 8.71374 81.5831 9.14286 80.7884 9.37274V9.47783V9.47345Z" fill="white"/>
<path d="M84.0001 21.8019H67.8906V26.8287H84.0001V21.8019Z" fill="#4A46FF"/>
</g>
<defs>
<clipPath id="clip0_280_1897">
<rect width="84" height="35.3892" fill="white"/>
</clipPath>
</defs>
</svg>
